<svg id="SvgjsSvg1001" width="288" height="288" xmlns="http://www.w3.org/2000/svg" version="1.1" xmlns:xlink="http://www.w3.org/1999/xlink" xmlns:svgjs="http://svgjs.com/svgjs"><defs id="SvgjsDefs1002"></defs><g id="SvgjsG1008" transform="matrix(1,0,0,1,0,0)"><svg xmlns="http://www.w3.org/2000/svg" xmlns:svgjs="http://svgjs.com/svgjs" xmlns:xlink="http://www.w3.org/1999/xlink" width="288" height="288"><svg xmlns="http://www.w3.org/2000/svg" width="288" height="288" fill="none" viewBox="0 0 512 512"><g fill="#e45433" class="color000 svgShape colorf76547" clip-path="url(#clip0_80_20)"><path stroke="#e45433" stroke-width="7" d="M222.4 17.9L212.5 34.7L196 34.6C186.9 34.6 176.8 34.8 173.4 35.3L167.4 36.1L156 19.3C149.8 9.99997 144.6 2.39997 144.4 2.19997C144.2 1.79997 86.7001 27 85.7001 28C85.2001 28.4 87.1001 37.4 89.8001 48L94.8001 67.3L82.1001 79.9C75 86.8 68 94.2 66.4 96.2L63.5 100L44 95.6C33.3 93.2 24.3 91.4 24 91.6C23.8 91.9 18.3 105.5 11.9 121.8C3.70005 142.5 0.500049 151.7 1.30005 152.2C2.00005 152.6 9.70005 157.1 18.5 162.3L34.5 171.8L34.6 191.2C34.6 201.8 35 211.9 35.4 213.7L36.2 216.9L21 226.7C12.6 232.1 4.90005 237.2 3.80005 238C1.90005 239.5 2.10005 240.2 13.5 266C19.9 280.6 25.8 293.9 26.5 295.7L27.9 298.9L46.9 293.9C57.4 291.2 66.6 289 67.2 289.1C67.9 289.1 71.6 292.8 75.4 297.2C79.2 301.6 86.2001 308.5 91.0001 312.6L99.7001 320L96.3001 335.8C93.6001 348.4 92.3001 352.3 89.9001 355.5C76.1 374.4 69.9 392.8 69.8 415.5C69.7 427.7 70.7 433.5 75.2 448.8L77.3 456.2L114.2 419.3L151 382.5L174.5 406C187.4 418.9 198 429.9 198 430.5C198 431 181.7 447.8 161.8 467.7C138.4 491.1 126.1 504.1 127.1 504.4C144.5 510 151.9 511.3 166.5 511.2C177 511.2 181.3 510.7 189 508.7C206.8 504.1 220.9 496 233.6 483.4C245.8 471.2 254.8 455.7 259.1 439.5C261.8 429.4 262.8 409 261 398.3L259.8 390.7L283.6 366.9L307.5 343L317.4 352.9L327.3 362.9L321.8 368.9C318.7 372.2 315.6 376.6 315 378.6C313.3 383.8 314.3 390.3 317.4 394.5C321.8 400.2 324.9 401.2 340 402C352.4 402.6 354 402.9 358.9 405.5C367.8 410.4 372 417.7 372 428.3V434.6L403.3 465.7C435.5 497.8 438.4 500.1 449.9 503.6C460.7 506.9 475.9 504.5 486 498C491.4 494.5 499.2 486.4 501.7 481.6C507.1 471.2 508.7 456.8 505.5 446.7C502.3 436 499.4 432.7 467.6 401.6L436.5 371.3L429.4 370.8C416.7 369.9 407.9 363.1 404.5 351.7C403.6 348.6 403 342.6 403 336.4C403 330.7 402.5 324.9 401.9 323.3C399.5 316.9 393.2 312.8 386 312.8C379.8 312.8 376.4 314.7 369.8 321.8L364.3 327.8L354.4 317.9L344.5 308L368.1 284.4L391.8 260.7L398.6 262.1C408.7 264 425.9 263.8 435.5 261.6C464.3 255.1 488.3 236.2 501.5 210C513.5 186.1 514.8 159.3 505.4 130.6L503.8 125.8L467.6 161.9C447.8 181.7 431 198 430.5 198C429.9 198 418.9 187.4 406 174.5L382.5 151L419 114.5C439 94.5 455.2 77.9 455 77.7C453.8 76.7 440.8 73 433 71.4C420.6 69 400.7 69.9 388.7 73.4C379.4 76.2 370.2 80.4 363.3 85.1C358.6 88.3 357 88.7 357 86.5C357 85.7 356.6 85 356.1 85C355.6 85 346.5 87.3 335.9 90.1L316.5 95.2L314.2 92.3C309.3 86.5 294.3 71.7 289.8 68.2C287.1 66.2 285 63.9 285 63C285 62.1 286.8 53.1 289 43C291.2 33 292.8 24.5 292.5 24.2C291.7 23.3 234.8 0.999968 233.5 0.999968C232.8 0.999968 227.8 8.59997 222.4 17.9ZM259 26.4C269.9 30.6 275.4 33.2 275.3 34.1C275.2 34.9 273.5 43.3 271.5 52.8C269.5 62.4 268 70.2 268.2 70.4C268.3 70.5 273 73.9 278.4 78C289.5 86.1 299.8 96.3 306.8 105.7C309.3 109.2 311.9 112 312.6 112C313.3 112 319.8 110.4 327.1 108.5C334.3 106.5 340.4 105.1 340.6 105.3C340.8 105.5 339.1 108.3 336.8 111.5C331.5 119.3 325.7 131.6 323 141C320 151.2 319.2 172.6 321.4 182.5L322.9 189.5L299.2 213.3L275.5 237L262.1 223.6L248.6 210.1L249.8 198.3C250.7 189.1 250.7 186.3 249.7 185.4C247.9 183.7 172.2 137 171.3 137C170.8 137 162.9 144.6 153.6 153.9C141.8 165.7 137 171.2 137.5 172.1C138 172.9 149.1 190.5 162.3 211.2C184 245.5 186.5 249 188.9 249C190.3 248.9 196 248.3 201.4 247.6L211.3 246.3L224.9 259.6L238.5 272.9L215 296.4L191.5 319.9L184 318.4C178.7 317.3 172.6 317 163 317.3C147 317.8 136.6 320.5 123.1 327.5C118.4 329.9 114.5 331.8 114.4 331.7C114.3 331.6 115.2 327 116.5 321.5C117.7 316 118.5 311.2 118.3 310.8C118.1 310.4 114.9 308.4 111.3 306.4C98.3001 299.1 86.2001 287.7 76.2 273.4L74.1 270.3L55.8 275.1C45.8 277.7 37.5 279.8 37.4 279.7C36.7 278.7 23 246.1 23 245.4C23 244.8 29.9 239.9 38.3 234.5C46.6 229.1 53.7 224.6 53.9 224.4C54.1 224.2 53.5 218.8 52.5 212.3C51.1 203 50.9 197.5 51.4 185.6C51.8 177.3 52.3 168.7 52.6 166.5L53.1 162.5L37 153.1C22.7 144.8 21 143.5 21.6 141.6C24.3 132.9 34.4 109 35.3 109C36 109 43.9 110.6 52.9 112.5C61.9 114.4 69.8 116 70.5 116C71.2 116 74.7 112.1 78.2 107.2C87.2001 95.1 96.4001 85.5 105.9 78.5C111.1 74.6 113.8 72 113.5 71C109.3 56.4 104.9 36.7 105.6 36C107.4 34.3 139.4 21 140 21.7C140.4 22.1 145.1 29.3 150.5 37.7C159.5 51.7 160.4 52.9 162.9 52.5C164.3 52.2 168.1 51.6 171.2 51.1C183.1 49 199.1 48.8 210.4 50.4C219.1 51.7 221.5 51.7 222.2 50.8C222.6 50.1 226.9 42.9 231.6 34.7C236.4 26.6 240.8 20 241.4 20C242 20 250 22.9 259 26.4ZM422 85.6L425.2 86.3L392.9 118.6L360.5 151L395.8 186.2L431 221.5L463 189.5C480.5 172 495.2 157.9 495.6 158.2C496.7 159.4 496.1 176.6 494.6 183.7C488.6 212.5 465.5 236.9 436.5 245.2C425.8 248.2 406.4 248.4 394.2 245.6L385.9 243.6L359.4 270.1L333 296.5L309.3 272.7L285.5 249L311.9 222.6L338.4 196.1L336.2 186.6C326.5 144.4 349.2 102.9 389.3 89.5C399.6 86.1 415 84.2 422 85.6ZM232.7 194.4C232.8 194.5 232.4 199.4 231.7 205.3L230.6 216.1L292 277.5L353.5 339L347 345.5C343.5 349.1 340.2 351.9 339.8 351.8C339.3 351.6 311.6 324.1 278.1 290.6L217.2 229.7L206 231.4C199.8 232.3 194.6 232.9 194.4 232.8C194.3 232.6 185.8 219.2 175.6 203L157.1 173.5L165.2 165.4L173.2 157.2L202.9 175.8C219.2 185.9 232.6 194.3 232.7 194.4ZM269.9 359.6L242.7 386.8L244.9 395.6C247.3 405.3 247.8 420.4 246 430C241.3 455.2 225 476.9 202.3 488.4C190.9 494.1 169.6 498.3 160.4 496.5L156.7 495.8L189.1 463.4L221.5 431L186.2 395.8L151 360.5L118.7 392.8L86.3001 425.2L85.7001 420.1C84.4001 409.2 88.2001 390.4 94.1001 378.7C99.6001 367.9 110.8 355.3 121.3 348.1C127.7 343.8 138.9 338.6 147 336.4C156.7 333.7 180 333.9 189 336.9L195.5 339L222.5 312L249.5 285L273.2 308.7L297 332.5L269.9 359.6Z" class="color000 svgShape colorStroke000 svgStroke colorStrokef76547" fill="#e45433"></path><path d="M338.7 231.8L333 237.6 338.5 243 344 248.5 349.8 242.7 355.5 237 350 231.5 344.5 226 338.7 231.8zM232 338.5L226.5 344 232 349.5 237.5 355 243 349.5 248.5 344 243 338.5 237.5 333 232 338.5z" class="color000 svgShape" fill="#e45433"></path></g><defs><clipPath id="clip0_80_20"><rect width="512" height="512" fill="#e45433" class="colorfff svgShape colorf76547"></rect></clipPath></defs></svg></svg></g></svg>