<svg id="SvgjsSvg1001" width="288" height="288" xmlns="http://www.w3.org/2000/svg" version="1.1" xmlns:xlink="http://www.w3.org/1999/xlink" xmlns:svgjs="http://svgjs.com/svgjs"><defs id="SvgjsDefs1002"></defs><g id="SvgjsG1008"><svg xmlns="http://www.w3.org/2000/svg" width="288" height="288" fill="none" viewBox="0 0 512 512"><path fill="#0f8a56" d="M230.3 1.39999C223.6 2.99999 214.7 8.39999 210.3 13.5C204.4 20.2 201.3 28.1 198.5 44C197.1 52 195.7 59.4 195.5 60.5C195.2 61.9 193.2 63.2 188.3 64.9C184.6 66.2 177.1 69.2 171.8 71.6L162 76L149.1 67C142.1 62.1 133.8 56.9 130.7 55.6C120 50.8 107.6 51.2 96.3 56.7C88 60.7 60.7 88 56.7 96.3C51.2 107.6 50.8 120 55.6 130.7C56.9 133.8 62.1 142.1 67 149.1L76 162L71.6 171.8C69.2 177.1 66.2 184.6 64.9 188.3C63.2 193.2 61.9 195.2 60.5 195.5C59.4 195.7 52 197.1 44 198.5C22.6 202.3 13.3 207.4 6.3 219.1C1 228 0 233.9 0 256C0 278.1 1 284 6.3 292.9C13.3 304.6 22.6 309.7 44 313.5C52 314.9 59.4 316.3 60.5 316.5C61.9 316.8 63.2 318.8 64.9 323.7C66.2 327.4 69.2 334.9 71.6 340.2L76 350L67 362.9C62.1 369.9 56.9 378.2 55.6 381.3C50.8 392 51.2 404.4 56.7 415.7C60.7 424 88 451.3 96.3 455.3C107.6 460.8 120 461.2 130.7 456.4C133.8 455.1 142.1 449.9 149.1 445L162 436L171.8 440.4C177.1 442.8 184.6 445.8 188.3 447.1C193.2 448.8 195.2 450.1 195.5 451.5C195.7 452.6 197.1 460 198.5 468C202.3 489.4 207.4 498.7 219.1 505.7C228 511 233.9 512 256 512C278.1 512 284 511 292.9 505.7C299.5 501.7 304.4 496.2 308.1 488.6C313.5 477.4 312.7 469.2 305.8 465C297.9 460.2 290 463.8 286.2 473.8C284.5 478.2 282.8 480.8 280.2 482.8L276.7 485.5H256.1C236.1 485.5 235.4 485.4 232.2 483.2C230.4 481.9 228.3 479.6 227.5 478.1C226.8 476.6 224.5 466.2 222.5 454.9C217.8 428.8 218.5 429.7 201.3 424.1C194.3 421.8 183.2 417.2 176.7 413.9C168.5 409.8 163.7 408 161.1 408C156.9 408 153.3 410.1 134 423.9C114.1 438 112.5 437.8 93.4 418.6C74.2 399.5 74 397.9 88.1 378C101.9 358.7 104 355.1 104 350.9C104 348.4 102.2 343.5 98.1 335.3C94.8 328.8 90.2 317.7 87.8 310.6C82.1 293.5 82.9 294 57.8 289.6C35.4 285.6 32.2 284.5 28.9 279.9C26.6 276.6 26.5 276 26.5 256C26.5 236.1 26.6 235.4 28.8 232.2C30.1 230.4 32.4 228.3 33.9 227.5C35.5 226.7 45.9 224.5 57.1 222.5C83 217.9 82 218.6 87.8 201.4C90.2 194.3 94.8 183.2 98.1 176.7C102.2 168.5 104 163.6 104 161.1C104 156.9 101.9 153.3 88.1 134C74 114.1 74.2 112.5 93.4 93.4C112.5 74.2 114.1 74 134 88.1C153.3 101.9 156.9 104 161.1 104C163.7 104 168.5 102.2 176.7 98.1C183.2 94.8 194.1 90.3 201 88C213 84.1 216.2 82.4 218.1 78.9C218.6 77.9 220.5 68.4 222.4 57.7C226.4 35.5 227.5 32.2 232.1 28.9C235.4 26.6 236 26.5 256 26.5C275.9 26.5 276.6 26.6 279.8 28.8C281.6 30.1 283.7 32.4 284.5 33.9C285.2 35.4 287.5 45.8 289.5 57.1C294.2 83.2 293.5 82.3 310.7 87.9C317.7 90.2 328.8 94.8 335.3 98.1C343.5 102.2 348.3 104 350.9 104C355.1 104 358.7 101.9 378 88.1C397.9 74 399.5 74.2 418.6 93.4C437.8 112.5 438 114.1 423.9 134C410.1 153.3 408 156.9 408 161.1C408 163.7 409.8 168.5 413.9 176.7C417.2 183.2 421.7 194.1 424 201C427.9 213 429.6 216.2 433.1 218.1C434.1 218.6 443.6 220.5 454.3 222.4C476.5 226.4 479.8 227.5 483.1 232.1C485.4 235.4 485.5 236 485.5 256.1V276.7L482.8 280.2C480.8 282.8 478.2 284.5 473.8 286.2C463.8 290 460.2 297.9 465 305.8C469.2 312.7 477.4 313.5 488.6 308.1C496.3 304.4 501.7 299.5 505.9 292.6C511 284.1 512 278.2 512 256C512 233.9 511 228 505.7 219.1C498.5 207.1 489.6 202.4 466.1 198.1C457.1 196.4 449.6 194.9 449.5 194.8C449.4 194.6 448.3 191.6 447 188C445.8 184.4 442.8 177.1 440.3 171.8L436 162L445 149.1C449.9 142.1 455.1 133.8 456.4 130.7C461.2 120 460.8 107.6 455.3 96.3C451.3 88 424 60.7 415.7 56.7C404.4 51.2 392 50.8 381.3 55.6C378.2 56.9 369.9 62.1 362.9 67L350 76L340.2 71.6C334.9 69.2 327.4 66.2 323.7 64.9C318.8 63.2 316.8 61.9 316.5 60.5C316.3 59.4 314.9 52 313.5 44C309.7 22.6 304.6 13.3 292.9 6.29999C283.9 0.999992 278.1 -7.62939e-06 255.5 0.0999924C243.1 0.0999924 233.5 0.699992 230.3 1.39999Z" class="color000 svgShape"></path><path fill="#0f8a56" d="M238.8 130.1C227.8 132.7 220 143 220 155C220 163.5 223.2 168 244.8 190.1C256.8 202.4 265.6 212.3 266.5 214.4C268.5 219.1 268.4 224.6 266.1 229.5C264.2 233.7 235.6 262.6 231 265C226.8 267.2 222.3 267.8 217.3 266.8C212.8 265.9 211 264.3 190.5 243.9C166.8 220.4 163.5 218.1 154.5 218C148.4 218 140.8 221.4 136.3 226.1C131.2 231.5 129.8 236.1 129.3 249.5C126.9 308.4 168.2 361.3 226.9 374.7C230.8 375.5 242.5 376.5 255 376.9C274.8 377.7 277 377.9 283.4 380.4C287.1 381.8 292.7 384.7 295.7 386.9C298.7 389 320.5 410.7 344.1 435.1C367.8 459.5 388.1 480 389.3 480.7C392.3 482.4 398.5 482.3 402 480.5C403.6 479.6 405.7 477.5 406.6 475.8C408.3 472.5 408.7 466.1 407.3 463.5C406.8 462.7 394.8 450 380.6 435.3C316.2 368.7 310.2 363.2 296 357.4C284.3 352.7 279.3 351.8 257 351C239.7 350.4 233.9 349.8 227.5 348C193.6 338.7 166.7 311.4 158 277.4C155.9 269.4 154.1 246 155.4 246C155.9 246 163.7 253.7 172.8 263.2C182 272.6 192.1 282.3 195.2 284.6C208.8 294.6 227.4 296 242.9 288.1C247.4 285.8 274.7 260.5 282.1 251.9C295.9 235.7 297.8 214.7 286.9 197.5C285.2 194.7 275.7 184.4 265.9 174.4C256 164.5 248 156 248 155.5C248 154.1 267.9 155.8 277 158C287.1 160.5 301.9 167.3 310.4 173.4C318.2 179.1 329.6 190.8 334.9 198.6C341.2 208 344.9 216.6 349.5 233C349.9 234.4 350.6 246.3 351 259.5C351.6 279.3 352.1 284.7 353.9 290.4C356.4 298.9 361.6 309.3 366.8 316.2C371.8 322.8 456.4 410.1 459.3 411.6C469.6 417.1 481.1 408 478 397C477.2 394.3 466.3 382.4 432.8 348C408.5 323 387.2 300.2 385.5 297.5C378.5 286.6 377.7 282.9 376.9 257C376.2 232.4 375.3 226.7 370.5 212.4C358.1 175.9 326 145.1 289.2 134.4C272.3 129.5 249.4 127.6 238.8 130.1Z" class="color000 svgShape"></path></svg></g></svg>