<svg width="32" height="32" viewBox="0 0 32 32" fill="none" xmlns="http://www.w3.org/2000/svg">
<circle r="1" transform="matrix(-1 0 0 1 31.0005 1)" fill="#F3F0FF"/>
<circle r="1" transform="matrix(-1 0 0 1 31.0005 7)" fill="#F3F0FF"/>
<circle r="1" transform="matrix(-1 0 0 1 31.0005 13)" fill="#F3F0FF"/>
<circle r="1" transform="matrix(-1 0 0 1 25.0005 1)" fill="#F3F0FF"/>
<circle r="1" transform="matrix(-1 0 0 1 25.0005 7)" fill="#F3F0FF"/>
<circle r="1" transform="matrix(-1 0 0 1 25.0005 13)" fill="#F3F0FF"/>
<circle r="1" transform="matrix(-1 0 0 1 19.0005 1)" fill="#F3F0FF"/>
<circle r="1" transform="matrix(-1 0 0 1 19.0005 7)" fill="#F3F0FF"/>
<circle r="1" transform="matrix(-1 0 0 1 19.0005 13)" fill="#F3F0FF"/>
<circle r="1" transform="matrix(-1 0 0 1 13.0005 19)" fill="#F3F0FF"/>
<circle r="1" transform="matrix(-1 0 0 1 13.0005 25)" fill="#F3F0FF"/>
<circle r="1" transform="matrix(-1 0 0 1 13.0005 31)" fill="#F3F0FF"/>
<circle r="1" transform="matrix(-1 0 0 1 7.00049 19)" fill="#F3F0FF"/>
<circle r="1" transform="matrix(-1 0 0 1 7.00049 25)" fill="#F3F0FF"/>
<circle r="1" transform="matrix(-1 0 0 1 7.00049 31)" fill="#F3F0FF"/>
<circle r="1" transform="matrix(-1 0 0 1 1.00049 19)" fill="#F3F0FF"/>
<circle r="1" transform="matrix(-1 0 0 1 1.00049 25)" fill="#F3F0FF"/>
<circle r="1" transform="matrix(-1 0 0 1 1.00049 31)" fill="#F3F0FF"/>
<circle r="1" transform="matrix(-1 0 0 1 31.0005 19)" fill="#F3F0FF"/>
<circle r="1" transform="matrix(-1 0 0 1 31.0005 25)" fill="#F3F0FF"/>
<circle r="1" transform="matrix(-1 0 0 1 31.0005 31)" fill="#F3F0FF"/>
<circle r="1" transform="matrix(-1 0 0 1 25.0005 19)" fill="#F3F0FF"/>
<circle r="1" transform="matrix(-1 0 0 1 25.0005 25)" fill="#F3F0FF"/>
<circle r="1" transform="matrix(-1 0 0 1 25.0005 31)" fill="#F3F0FF"/>
<circle r="1" transform="matrix(-1 0 0 1 19.0005 19)" fill="#F3F0FF"/>
<circle r="1" transform="matrix(-1 0 0 1 19.0005 25)" fill="#F3F0FF"/>
<circle r="1" transform="matrix(-1 0 0 1 19.0005 31)" fill="#F3F0FF"/>
<circle r="1" transform="matrix(-1 0 0 1 13.0005 1)" fill="#F3F0FF"/>
<circle r="1" transform="matrix(-1 0 0 1 13.0005 7)" fill="#F3F0FF"/>
<circle r="1" transform="matrix(-1 0 0 1 13.0005 13)" fill="#F3F0FF"/>
<circle r="1" transform="matrix(-1 0 0 1 7.00049 1)" fill="#F3F0FF"/>
<circle r="1" transform="matrix(-1 0 0 1 7.00049 7)" fill="#F3F0FF"/>
<circle r="1" transform="matrix(-1 0 0 1 7.00049 13)" fill="#F3F0FF"/>
<circle r="1" transform="matrix(-1 0 0 1 1 1)" fill="#F3F0FF"/>
<circle r="1" transform="matrix(-1 0 0 1 1.00049 7)" fill="#F3F0FF"/>
<circle r="1" transform="matrix(-1 0 0 1 1.00049 13)" fill="#F3F0FF"/>
</svg>
