<svg width="16" height="16" viewBox="0 0 16 16" fill="none" xmlns="http://www.w3.org/2000/svg">
<path d="M11.3893 10.2079C12.0163 9.54554 12.4354 8.71394 12.5948 7.81593C12.7542 6.91793 12.6471 5.99288 12.2865 5.15514C11.9259 4.31739 11.3277 3.60367 10.5659 3.10219C9.80411 2.60071 8.91205 2.33345 8 2.33345C7.08795 2.33345 6.19589 2.60071 5.43408 3.10219C4.67227 3.60367 4.07411 4.31739 3.71353 5.15514C3.35295 5.99288 3.24576 6.91793 3.4052 7.81593C3.56464 8.71394 3.98373 9.54554 4.61067 10.2079C4.97045 9.63385 5.47024 9.16061 6.06311 8.83269C6.65599 8.50476 7.32248 8.33292 8 8.33328C8.67752 8.33292 9.34402 8.50476 9.93689 8.83269C10.5298 9.16061 11.0296 9.63385 11.3893 10.2079ZM5.59 11.1899L8 13.5993L10.41 11.1899C10.1939 10.7337 9.85266 10.3481 9.42603 10.0781C8.9994 9.80811 8.50489 9.66478 8 9.66478C7.49512 9.66478 7.0006 9.80811 6.57397 10.0781C6.14734 10.3481 5.80612 10.7337 5.59 11.1899ZM8 15.4853L3.75734 11.2426C2.91823 10.4035 2.34679 9.3344 2.11529 8.17051C1.88378 7.00663 2.0026 5.80023 2.45673 4.70388C2.91086 3.60753 3.6799 2.67046 4.66659 2.01118C5.65328 1.35189 6.81332 1 8 1C9.18669 1 10.3467 1.35189 11.3334 2.01118C12.3201 2.67046 13.0891 3.60753 13.5433 4.70388C13.9974 5.80023 14.1162 7.00663 13.8847 8.17051C13.6532 9.3344 13.0818 10.4035 12.2427 11.2426L8 15.4853ZM8 6.33328C8.17681 6.33328 8.34638 6.26304 8.47141 6.13802C8.59643 6.01299 8.66667 5.84343 8.66667 5.66661C8.66667 5.4898 8.59643 5.32023 8.47141 5.19521C8.34638 5.07019 8.17681 4.99995 8 4.99995C7.82319 4.99995 7.65362 5.07019 7.5286 5.19521C7.40357 5.32023 7.33334 5.4898 7.33334 5.66661C7.33334 5.84343 7.40357 6.01299 7.5286 6.13802C7.65362 6.26304 7.82319 6.33328 8 6.33328ZM8 7.66661C7.46957 7.66661 6.96086 7.4559 6.58579 7.08083C6.21072 6.70576 6 6.19705 6 5.66661C6 5.13618 6.21072 4.62747 6.58579 4.2524C6.96086 3.87733 7.46957 3.66661 8 3.66661C8.53044 3.66661 9.03914 3.87733 9.41422 4.2524C9.78929 4.62747 10 5.13618 10 5.66661C10 6.19705 9.78929 6.70576 9.41422 7.08083C9.03914 7.4559 8.53044 7.66661 8 7.66661Z" fill="#5F6264"/>
</svg>
