<svg width="16" height="16" viewBox="0 0 16 16" fill="none" xmlns="http://www.w3.org/2000/svg">
<path d="M11.3893 10.5414C12.0163 9.87895 12.4354 9.04735 12.5948 8.14934C12.7542 7.25134 12.6471 6.32629 12.2865 5.48855C11.9259 4.6508 11.3277 3.93708 10.5659 3.4356C9.80411 2.93412 8.91205 2.66686 8 2.66686C7.08795 2.66686 6.19589 2.93412 5.43408 3.4356C4.67227 3.93708 4.07411 4.6508 3.71353 5.48855C3.35295 6.32629 3.24576 7.25134 3.4052 8.14934C3.56464 9.04735 3.98373 9.87895 4.61067 10.5414C4.97045 9.96726 5.47024 9.49402 6.06311 9.1661C6.65599 8.83818 7.32248 8.66633 8 8.66669C8.67752 8.66633 9.34402 8.83818 9.93689 9.1661C10.5298 9.49402 11.0296 9.96726 11.3893 10.5414ZM5.59 11.5234L8 13.9327L10.41 11.5234C10.1939 11.0671 9.85266 10.6815 9.42603 10.4115C8.9994 10.1415 8.50489 9.99819 8 9.99819C7.49512 9.99819 7.0006 10.1415 6.57397 10.4115C6.14734 10.6815 5.80612 11.0671 5.59 11.5234ZM8 15.8187L3.75734 11.576C2.91823 10.7369 2.34679 9.66781 2.11529 8.50393C1.88378 7.34004 2.0026 6.13365 2.45673 5.03729C2.91086 3.94094 3.6799 3.00387 4.66659 2.34459C5.65328 1.6853 6.81332 1.33341 8 1.33341C9.18669 1.33341 10.3467 1.6853 11.3334 2.34459C12.3201 3.00387 13.0891 3.94094 13.5433 5.03729C13.9974 6.13365 14.1162 7.34004 13.8847 8.50393C13.6532 9.66781 13.0818 10.7369 12.2427 11.576L8 15.8187ZM8 6.66669C8.17681 6.66669 8.34638 6.59646 8.47141 6.47143C8.59643 6.34641 8.66667 6.17684 8.66667 6.00003C8.66667 5.82322 8.59643 5.65365 8.47141 5.52862C8.34638 5.4036 8.17681 5.33336 8 5.33336C7.82319 5.33336 7.65362 5.4036 7.5286 5.52862C7.40357 5.65365 7.33334 5.82322 7.33334 6.00003C7.33334 6.17684 7.40357 6.34641 7.5286 6.47143C7.65362 6.59646 7.82319 6.66669 8 6.66669ZM8 8.00003C7.46957 8.00003 6.96086 7.78931 6.58579 7.41424C6.21072 7.03917 6 6.53046 6 6.00003C6 5.46959 6.21072 4.96089 6.58579 4.58581C6.96086 4.21074 7.46957 4.00003 8 4.00003C8.53044 4.00003 9.03914 4.21074 9.41422 4.58581C9.78929 4.96089 10 5.46959 10 6.00003C10 6.53046 9.78929 7.03917 9.41422 7.41424C9.03914 7.78931 8.53044 8.00003 8 8.00003Z" fill="#262728"/>
</svg>
