<svg width="45" height="45" viewBox="0 0 45 45" fill="none" xmlns="http://www.w3.org/2000/svg">
<circle r="2.06692" transform="matrix(-1 0 0 1 42.7749 2.06692)" fill="#F3F0FF"/>
<circle r="2.06692" transform="matrix(-1 0 0 1 42.7749 10.2017)" fill="#F3F0FF"/>
<circle r="2.06692" transform="matrix(-1 0 0 1 42.7749 18.3365)" fill="#F3F0FF"/>
<circle r="2.06692" transform="matrix(-1 0 0 1 34.5073 2.06692)" fill="#F3F0FF"/>
<circle r="2.06692" transform="matrix(-1 0 0 1 34.5073 10.2017)" fill="#F3F0FF"/>
<circle r="2.06692" transform="matrix(-1 0 0 1 34.5073 18.3365)" fill="#F3F0FF"/>
<circle r="2.06692" transform="matrix(-1 0 0 1 26.2397 2.06692)" fill="#F3F0FF"/>
<circle r="2.06692" transform="matrix(-1 0 0 1 26.2397 10.2017)" fill="#F3F0FF"/>
<circle r="2.06692" transform="matrix(-1 0 0 1 26.2397 18.3365)" fill="#F3F0FF"/>
<circle r="2.06692" transform="matrix(-1 0 0 1 18.603 26.4712)" fill="#F3F0FF"/>
<circle r="2.06692" transform="matrix(-1 0 0 1 18.603 34.606)" fill="#F3F0FF"/>
<circle r="2.06692" transform="matrix(-1 0 0 1 18.603 42.7408)" fill="#F3F0FF"/>
<circle r="2.06692" transform="matrix(-1 0 0 1 10.3354 26.4712)" fill="#F3F0FF"/>
<circle r="2.06692" transform="matrix(-1 0 0 1 10.3354 34.606)" fill="#F3F0FF"/>
<circle r="2.06692" transform="matrix(-1 0 0 1 10.3354 42.7408)" fill="#F3F0FF"/>
<circle r="2.06692" transform="matrix(-1 0 0 1 2.06784 26.4712)" fill="#F3F0FF"/>
<circle r="2.06692" transform="matrix(-1 0 0 1 2.06784 34.606)" fill="#F3F0FF"/>
<circle r="2.06692" transform="matrix(-1 0 0 1 2.06784 42.7408)" fill="#F3F0FF"/>
<circle r="2.06692" transform="matrix(-1 0 0 1 42.7749 26.4712)" fill="#F3F0FF"/>
<circle r="2.06692" transform="matrix(-1 0 0 1 42.7749 34.606)" fill="#F3F0FF"/>
<circle r="2.06692" transform="matrix(-1 0 0 1 42.7749 42.7408)" fill="#F3F0FF"/>
<circle r="2.06692" transform="matrix(-1 0 0 1 34.5073 26.4712)" fill="#F3F0FF"/>
<circle r="2.06692" transform="matrix(-1 0 0 1 34.5073 34.606)" fill="#F3F0FF"/>
<circle r="2.06692" transform="matrix(-1 0 0 1 34.5073 42.7408)" fill="#F3F0FF"/>
<circle r="2.06692" transform="matrix(-1 0 0 1 26.2397 26.4712)" fill="#F3F0FF"/>
<circle r="2.06692" transform="matrix(-1 0 0 1 26.2397 34.606)" fill="#F3F0FF"/>
<circle r="2.06692" transform="matrix(-1 0 0 1 26.2397 42.7408)" fill="#F3F0FF"/>
<circle r="2.06692" transform="matrix(-1 0 0 1 18.603 2.06692)" fill="#F3F0FF"/>
<circle r="2.06692" transform="matrix(-1 0 0 1 18.603 10.2017)" fill="#F3F0FF"/>
<circle r="2.06692" transform="matrix(-1 0 0 1 18.603 18.3365)" fill="#F3F0FF"/>
<circle r="2.06692" transform="matrix(-1 0 0 1 10.3354 2.06692)" fill="#F3F0FF"/>
<circle r="2.06692" transform="matrix(-1 0 0 1 10.3354 10.2017)" fill="#F3F0FF"/>
<circle r="2.06692" transform="matrix(-1 0 0 1 10.3354 18.3365)" fill="#F3F0FF"/>
<circle r="2.06692" transform="matrix(-1 0 0 1 2.06784 2.06692)" fill="#F3F0FF"/>
<circle r="2.06692" transform="matrix(-1 0 0 1 2.06784 10.2017)" fill="#F3F0FF"/>
<circle r="2.06692" transform="matrix(-1 0 0 1 2.06784 18.3365)" fill="#F3F0FF"/>
</svg>
