<svg width="74" height="74" viewBox="0 0 74 74" fill="none" xmlns="http://www.w3.org/2000/svg">
<path d="M37.0007 73.6666C16.7497 73.6666 0.333984 57.251 0.333984 37C0.333984 16.749 16.7497 0.333313 37.0007 0.333313C57.2517 0.333313 73.6673 16.749 73.6673 37C73.6673 57.251 57.2517 73.6666 37.0007 73.6666ZM37.0007 66.3333C44.7803 66.3333 52.2414 63.2428 57.7425 57.7418C63.2435 52.2407 66.334 44.7797 66.334 37C66.334 29.2203 63.2435 21.7592 57.7425 16.2582C52.2414 10.7571 44.7803 7.66665 37.0007 7.66665C29.221 7.66665 21.7599 10.7571 16.2589 16.2582C10.7578 21.7592 7.66732 29.2203 7.66732 37C7.66732 44.7797 10.7578 52.2407 16.2589 57.7418C21.7599 63.2428 29.221 66.3333 37.0007 66.3333ZM33.345 51.6666L17.7873 36.109L22.972 30.9243L33.345 41.2973L54.0837 20.555L59.272 25.7396L33.345 51.6666Z" fill="#1FCBCD"/>
</svg>
