<svg width="24" height="24" viewBox="0 0 24 24" fill="none" xmlns="http://www.w3.org/2000/svg">
<path d="M17 6.00002H22V8.00002H20V21C20 21.2652 19.8946 21.5196 19.7071 21.7071C19.5196 21.8947 19.2652 22 19 22H5C4.73478 22 4.48043 21.8947 4.29289 21.7071C4.10536 21.5196 4 21.2652 4 21V8.00002H2V6.00002H7V3.00002C7 2.7348 7.10536 2.48044 7.29289 2.29291C7.48043 2.10537 7.73478 2.00002 8 2.00002H16C16.2652 2.00002 16.5196 2.10537 16.7071 2.29291C16.8946 2.48044 17 2.7348 17 3.00002V6.00002ZM18 8.00002H6V20H18V8.00002ZM9 11H11V17H9V11ZM13 11H15V17H13V11ZM9 4.00002V6.00002H15V4.00002H9Z" fill="#5F6264"/>
</svg>
