<svg width="24" height="24" viewBox="0 0 24 24" fill="none" xmlns="http://www.w3.org/2000/svg">
<path d="M4.00059 19.9999V13.9999C4.00059 11.8782 4.84345 9.84334 6.34374 8.34305C7.84403 6.84276 9.87886 5.99991 12.0006 5.99991C14.1223 5.99991 16.1572 6.84276 17.6574 8.34305C19.1577 9.84334 20.0006 11.8782 20.0006 13.9999V19.9999H21.0006V21.9999H3.00059V19.9999H4.00059ZM6.00059 19.9999H18.0006V13.9999C18.0006 12.4086 17.3685 10.8825 16.2432 9.75727C15.118 8.63205 13.5919 7.99991 12.0006 7.99991C10.4093 7.99991 8.88317 8.63205 7.75795 9.75727C6.63273 10.8825 6.00059 12.4086 6.00059 13.9999V19.9999ZM11.0006 1.99991H13.0006V4.99991H11.0006V1.99991ZM19.7786 4.80791L21.1926 6.22191L19.0726 8.34291L17.6576 6.92891L19.7786 4.80791ZM2.80859 6.22191L4.22259 4.80791L6.34359 6.92791L4.93059 8.34391L2.80859 6.22191ZM7.00059 13.9999C7.00059 12.6738 7.52738 11.4021 8.46506 10.4644C9.40274 9.52669 10.6745 8.99991 12.0006 8.99991V10.9999C11.2049 10.9999 10.4419 11.316 9.87927 11.8786C9.31666 12.4412 9.00059 13.2043 9.00059 13.9999H7.00059Z" fill="#BD224C"/>
</svg>
