<svg width="16" height="16" viewBox="0 0 16 16" fill="none" xmlns="http://www.w3.org/2000/svg">
<path d="M8 15.8187L3.75734 11.576C2.91823 10.7369 2.34679 9.66781 2.11529 8.50393C1.88378 7.34004 2.0026 6.13365 2.45673 5.03729C2.91086 3.94094 3.6799 3.00387 4.66659 2.34459C5.65328 1.6853 6.81332 1.33341 8 1.33341C9.18669 1.33341 10.3467 1.6853 11.3334 2.34459C12.3201 3.00387 13.0891 3.94094 13.5433 5.03729C13.9974 6.13365 14.1162 7.34004 13.8847 8.50393C13.6532 9.66781 13.0818 10.7369 12.2427 11.576L8 15.8187ZM11.3 10.6334C11.9526 9.9807 12.397 9.14917 12.577 8.24394C12.7571 7.33871 12.6646 6.40042 12.3114 5.54773C11.9582 4.69504 11.36 3.96623 10.5926 3.45347C9.82519 2.94071 8.92296 2.66703 8 2.66703C7.07704 2.66703 6.17481 2.94071 5.40739 3.45347C4.63997 3.96623 4.04183 4.69504 3.68861 5.54773C3.33539 6.40042 3.24294 7.33871 3.42297 8.24394C3.603 9.14917 4.04741 9.9807 4.7 10.6334L8 13.9334L11.3 10.6334ZM8 8.66669C7.64638 8.66669 7.30724 8.52622 7.05719 8.27617C6.80715 8.02612 6.66667 7.68698 6.66667 7.33336C6.66667 6.97974 6.80715 6.6406 7.05719 6.39055C7.30724 6.1405 7.64638 6.00003 8 6.00003C8.35362 6.00003 8.69276 6.1405 8.94281 6.39055C9.19286 6.6406 9.33334 6.97974 9.33334 7.33336C9.33334 7.68698 9.19286 8.02612 8.94281 8.27617C8.69276 8.52622 8.35362 8.66669 8 8.66669Z" fill="#262728"/>
</svg>
