<svg width="14" height="14" viewBox="0 0 14 14" fill="none" xmlns="http://www.w3.org/2000/svg">
<path d="M6.99992 13.6667C3.31792 13.6667 0.333252 10.682 0.333252 7C0.333252 3.318 3.31792 0.333328 6.99992 0.333328C10.6819 0.333328 13.6666 3.318 13.6666 7C13.6666 10.682 10.6819 13.6667 6.99992 13.6667ZM6.99992 12.3333C8.41441 12.3333 9.77096 11.7714 10.7712 10.7712C11.7713 9.77104 12.3333 8.41448 12.3333 7C12.3333 5.58551 11.7713 4.22895 10.7712 3.22876C9.77096 2.22856 8.41441 1.66666 6.99992 1.66666C5.58543 1.66666 4.22888 2.22856 3.22868 3.22876C2.22849 4.22895 1.66659 5.58551 1.66659 7C1.66659 8.41448 2.22849 9.77104 3.22868 10.7712C4.22888 11.7714 5.58543 12.3333 6.99992 12.3333ZM6.33525 9.66666L3.50659 6.838L4.44925 5.89533L6.33525 7.78133L10.1059 4.00999L11.0493 4.95266L6.33525 9.66666Z" fill="#0E686B"/>
</svg>
