<svg width="16" height="16" viewBox="0 0 16 16" fill="none" xmlns="http://www.w3.org/2000/svg">
<path d="M8.00065 14.6667C4.31865 14.6667 1.33398 11.682 1.33398 8C1.33398 4.318 4.31865 1.33333 8.00065 1.33333C11.6827 1.33333 14.6673 4.318 14.6673 8C14.6673 11.682 11.6827 14.6667 8.00065 14.6667ZM8.00065 13.3333C9.41514 13.3333 10.7717 12.7714 11.7719 11.7712C12.7721 10.771 13.334 9.41449 13.334 8C13.334 6.58551 12.7721 5.22896 11.7719 4.22876C10.7717 3.22857 9.41514 2.66667 8.00065 2.66667C6.58616 2.66667 5.22961 3.22857 4.22941 4.22876C3.22922 5.22896 2.66732 6.58551 2.66732 8C2.66732 9.41449 3.22922 10.771 4.22941 11.7712C5.22961 12.7714 6.58616 13.3333 8.00065 13.3333ZM8.66732 8H11.334V9.33333H7.33398V4.66667H8.66732V8Z" fill="#181818"/>
</svg>
